<?xml version="1.0" standalone="no"?>
<!DOCTYPE svg PUBLIC "-//W3C//DTD SVG 20010904//EN"
 "http://www.w3.org/TR/2001/REC-SVG-20010904/DTD/svg10.dtd">
<svg version="1.0" xmlns="http://www.w3.org/2000/svg"
 width="512.000000pt" height="512.000000pt" viewBox="0 0 512.000000 512.000000"
 preserveAspectRatio="xMidYMid meet">
    <g transform="translate(0.000000,512.000000) scale(0.100000,-0.100000)"
fill="#000000" stroke="none">
        <path fill="#3DACF5" d="M2935 5108 c-32 -18 -35 -28 -35 -116 0 -337 -170 -582 -690 -996
-283 -225 -430 -354 -500 -439 -30 -37 -60 -67 -66 -67 -5 0 -25 16 -44 35
-19 19 -43 35 -55 35 -22 0 -564 -535 -609 -601 -88 -130 -86 -334 4 -463 16
-23 92 -104 169 -181 l141 -140 -106 -106 c-127 -127 -130 -137 -59 -209 27
-27 44 -53 40 -59 -3 -7 -212 -183 -463 -393 -251 -210 -476 -403 -499 -428
-89 -95 -140 -251 -129 -391 13 -162 71 -285 191 -404 126 -127 253 -178 435
-177 115 0 200 24 286 80 76 50 81 55 519 579 l370 443 50 -50 c33 -33 59 -50
75 -50 18 0 54 29 132 107 l108 107 157 -156 c174 -172 217 -200 333 -220 53
-9 86 -9 136 -1 129 22 153 40 467 352 158 157 290 296 294 309 4 18 -3 32
-31 61 l-37 38 48 44 c128 118 286 235 606 446 122 81 276 188 342 237 139
105 338 298 418 407 66 91 157 247 157 270 0 15 -82 122 -219 286 -19 24 -42
45 -51 48 -8 2 -114 -27 -235 -65 -120 -38 -221 -67 -224 -65 -2 3 28 107 68
232 39 126 71 238 71 250 0 41 -777 811 -844 837 -17 6 -58 -3 -164 -36 -94
-30 -142 -41 -142 -33 0 6 16 61 35 121 35 109 41 149 27 170 -9 13 -308 262
-385 320 -65 49 -64 48 -92 32z m229 -286 c75 -62 136 -118 136 -124 0 -6 -22
-81 -50 -168 -27 -87 -50 -163 -50 -170 0 -19 30 -50 49 -50 9 0 96 25 194 56
l178 56 37 -29 c60 -45 722 -705 722 -719 0 -7 -38 -133 -85 -280 -47 -148
-85 -274 -85 -281 0 -20 30 -43 56 -43 14 0 132 34 262 75 130 41 242 75 249
75 17 0 183 -201 183 -221 0 -9 -32 -65 -72 -125 -87 -132 -282 -333 -433
-446 -154 -115 -250 -178 -269 -178 -32 0 -211 72 -326 131 -159 82 -285 175
-415 304 -232 230 -377 466 -637 1035 -49 107 -118 251 -154 318 l-65 124 80
83 c143 149 243 301 293 445 23 68 48 181 48 221 0 17 4 29 9 27 5 -1 70 -54
145 -116z m-581 -889 c41 -82 110 -224 152 -318 162 -355 276 -566 405 -745
225 -314 506 -536 845 -670 44 -18 81 -33 83 -35 2 -1 -66 -49 -150 -106 -166
-113 -304 -218 -411 -312 l-69 -60 -855 855 -856 856 18 29 c41 64 256 261
490 450 138 110 255 201 262 202 6 1 45 -65 86 -146z m-81 -1464 l952 -950
-90 -90 -89 -89 -955 955 -955 955 85 85 c46 47 88 85 93 85 4 0 436 -428 959
-951z m568 -1334 c-153 -154 -197 -179 -310 -180 -146 0 -98 -41 -961 823
-611 611 -771 777 -790 817 -20 41 -24 66 -24 135 0 119 20 155 174 313 l125
128 955 -955 956 -956 -125 -125z m-1340 560 l395 -395 -80 -80 -80 -80 -397
397 -398 398 77 77 c43 43 80 78 83 78 3 0 183 -178 400 -395z m-241 -239
c190 -190 261 -268 255 -277 -18 -30 -730 -878 -783 -932 -35 -36 -81 -70
-121 -90 -63 -31 -69 -32 -190 -32 -107 0 -133 4 -183 24 -286 114 -414 488
-248 723 25 35 186 177 511 449 261 219 480 398 485 399 6 0 129 -119 274
-264z"/>
        <path fill="#3D72F5"  d="M2457 1382 c-35 -38 -22 -62 86 -169 56 -55 116 -108 134 -117 40
-20 113 -21 158 -2 38 16 165 141 165 163 0 16 -44 63 -60 63 -5 0 -42 -29
-81 -65 -100 -92 -104 -91 -239 40 -62 61 -116 105 -127 105 -11 0 -27 -8 -36
-18z"/>
        <path fill="#2DE5F4" d="M529 834 c-59 -18 -131 -81 -159 -140 -16 -32 -22 -63 -22 -109 1
-155 110 -265 262 -265 152 0 263 112 263 266 0 79 -28 139 -90 194 -73 64
-161 83 -254 54z m169 -128 c44 -29 75 -94 66 -141 -27 -143 -209 -184 -285
-63 -16 26 -19 45 -16 91 3 49 8 62 37 92 56 58 130 66 198 21z"/>
    </g>
</svg>
